# AST/ASF file generated using VICON BodyLanguage
# -----------------------------------------------
:version 1.10
:name VICON
:units
  mass 1.0
  length 0.45
  angle deg
:documentation
   .ast/.asf automatically generated from VICON data using
   VICON BodyBuilder and BodyLanguage model FoxedUp or BRILLIANT.MOD
:root
   order TX TY TZ RX RY RZ
   axis XYZ
   position 0 0 0  
   orientation 0 0 0 
:bonedata
  begin
     id 1 
     name lhipjoint
     direction 0.623415 -0.642378 0.445763 
     length 2.49859 
     axis 0 0 0  XYZ
  end
  begin
     id 2 
     name lfemur
     direction 0.34202 -0.939693 0  
     length 6.69689  
     axis 0 0 20  XYZ
    dof rx ry rz
    limits (-160.0 20.0)
           (-70.0 70.0)
           (-60.0 70.0)
  end
  begin
     id 3 
     name ltibia
     direction 0.34202 -0.939693 0   
     length 7.37574   
     axis 0 0 20   XYZ
    dof rx
    limits (-10.0 170.0)
  end
  begin
     id 4 
     name lfoot
     direction 0.084323 -0.231675 0.969132   
     length 2.09111   
     axis -90 7.62852e-016 20   XYZ
    dof rx rz
    limits (-45.0 90.0)
           (-70.0 20.0)
  end
  begin
     id 5 
     name ltoes
     direction 1.5357e-011 -4.21957e-011 1   
     length 1.04989   
     axis -90 7.62852e-016 20   XYZ
    dof rx
    limits (-90.0 20.0)
  end
  begin
     id 6 
     name rhipjoint
     direction -0.605402 -0.653903 0.45376   
     length 2.45455  
     axis 0 0 0  XYZ 
  end
  begin
     id 7 
     name rfemur
     direction -0.34202 -0.939693 0   
     length 6.64523   
     axis 0 0 -20   XYZ
    dof rx ry rz
    limits (-160.0 20.0)
           (-70.0 70.0)
           (-70.0 60.0)
  end
  begin
     id 8 
     name rtibia
     direction -0.34202 -0.939693 0   
     length 7.3339   
     axis 0 0 -20   XYZ
    dof rx
    limits (-10.0 170.0)
 end
 begin
     id 9 
     name rfoot
     direction -0.120854 -0.332043 0.93549   
     length 2.23135  
     axis -90 -7.62852e-016 -20   XYZ
    dof rx rz
    limits (-45.0 90.0)
           (-20.0 70.0)
  end
  begin
     id 10 
     name rtoes
     direction -1.53563e-011 -4.21914e-011 1   
     length 1.10614   
     axis -90 -7.62852e-016 -20   XYZ
    dof rx
    limits (-90.0 20.0)
  end
  begin
     id 11 
     name lowerback
     direction 0.0319682 0.998615 -0.0417941   
     length 2.02718   
     axis 0 0 0   XYZ
    dof rx ry rz
    limits (-20.0 45.0)
           (-30.0 30.0)
           (-30.0 30.0)
  end
  begin
     id 12 
     name upperback
     direction 7.63181e-005 0.995808 0.0914691   
     length 1.97539   
     axis 0 0 0   XYZ
    dof rx ry rz
    limits (-20.0 45.0)
           (-30.0 30.0)
           (-30.0 30.0)
  end
  begin
     id 13 
     name thorax
     direction -0.016423 0.993627 0.111514   
     length 2.00349   
     axis 0 0 0   XYZ
    dof rx ry rz
    limits (-20.0 45.0)
           (-30.0 30.0)
           (-30.0 30.0)
  end
  begin
     id 14 
     name lowerneck
     direction -0.174763 0.981668 -0.0760716   
     length 1.71436   
     axis 0 0 0   XYZ
    dof rx ry rz
    limits (-20.0 45.0)
           (-30.0 30.0)
           (-30.0 30.0)
  end
  begin
     id 15 
     name upperneck
     direction 0.345458 0.934587 -0.0848868   
     length 1.72805   
     axis 0 0 0   XYZ
    dof rx ry rz
    limits (-20.0 45.0)
           (-30.0 30.0)
           (-30.0 30.0)
  end
  begin
     id 16
     name head
     direction 0.13001 0.989848 -0.0574291  
     length 1.767  
     axis 0 0 0   XYZ
    dof rx ry rz
    limits (-20.0 45.0)
           (-30.0 30.0)
           (-30.0 30.0)
  end
  begin
     id 17 
     name lclavicle
     direction 0.952951 0.290122 0.0878234  
     length 3.54654  
     axis 0 0 0   XYZ
    dof ry rz
    limits (-20.0 10.0)
           (0.0 20.0)
  end
  begin
     id 18 
     name lhumerus
     direction 1 -4.48957e-011 -4.56525e-028   
     length 5.19807   
     axis 180 -30 -90   XYZ
    dof rx ry rz
    limits (-60.0 90.0)
           (-90.0 90.0)
           (-90.0 90.0)
  end
  begin
     id 19
     name lradius
     direction 1 -4.48979e-011 -2.0317e-027   
     length 3.0937   
     axis 180 -30 -90   XYZ
    dof rx
    limits (-10.0 170.0)
  end
  begin
     id 20
     name lwrist
     direction 1 -4.48953e-011 -3.05809e-027   
     length 1.54685   
     axis 8.48514e-016 90 90   XYZ
    dof ry
    limits (-180.0 0.0)
 end
  begin
     id 21 
     name lhand
     direction 1 -4.48952e-011 -6.11639e-027   
     length 0.672632   
     axis 3.9013e-015 90 90   XYZ
    dof rx rz
    limits (-90.0 90.0)
           (-45.0 45.0)
  end
  begin
     id 22 
     name lfingers
     direction 1 -4.48925e-011 -1.22426e-026   
     length 0.542293   
     axis 7.80276e-015 90 90   XYZ
    dof rx
    limits (0.0 90.0)
  end
  begin
     id 23
     name lthumb
     direction 0.707107 -6.3486e-011 0.707107   
     length 0.778628   
     axis -90 45 5.37419e-014   XYZ
    dof rx rz
    limits (-45.0 45.0)
           (-45.0 45.0)
  end
  begin
     id 24 
     name rclavicle
     direction -0.960732 0.273675 -0.0457849   
     length 3.52079  
     axis 0 0 0   XYZ 
    dof ry rz
    limits (-10.0 20.0)
           (-20.0 0.0)
  end
  begin
     id 25 
     name rhumerus
     direction -1 -4.48976e-011 -1.63613e-027  
     length 5.45222   
     axis 180 30 90   XYZ
    dof rx ry rz
    limits (-90.0 60.0)
           (-90.0 90.0)
           (-90.0 90.0)
  end
  begin
     id 26 
     name rradius
     direction -1 -4.48957e-011 -7.00033e-028   
     length 3.01284   
     axis 180 30 90   XYZ
    dof rx
    limits (-10.0 170.0)
  end
  begin
     id 27 
     name rwrist
     direction -1 -4.48983e-011 -3.05543e-027   
     length 1.50642   
     axis 8.48514e-016 -90 -90   XYZ
    dof ry
    limits (-180.0 0.0)
  end
  begin
     id 28
     name rhand
     direction -1 -4.48984e-011 -6.11072e-027   
     length 0.622296   
     axis 3.9013e-015 -90 -90   XYZ
    dof rx rz
    limits (-90.0 90.0)
           (-45.0 45.0)
  end
  begin
     id 29
     name rfingers
     direction -1 -4.48865e-011 -1.22637e-026   
     length 0.501711   
     axis 7.80276e-015 -90 -90   XYZ
    dof rx
    limits (0.0 90.0)
  end
  begin
     id 30
     name rthumb
     direction -0.707107 -6.34932e-011 0.707107   
     length 0.72036   
     axis -90 -45 -5.37419e-014   XYZ
    dof rx rz
    limits (-45.0 45.0)
           (-45.0 45.0)
  end
:hierarchy
  begin
    root lhipjoint rhipjoint lowerback
    lhipjoint lfemur
    lfemur ltibia
    ltibia lfoot
    lfoot ltoes
    rhipjoint rfemur
    rfemur rtibia
    rtibia rfoot
    rfoot rtoes
    lowerback upperback
    upperback thorax
    thorax lowerneck lclavicle rclavicle
    lowerneck upperneck
    upperneck head
    lclavicle lhumerus
    lhumerus lradius
    lradius lwrist
    lwrist lhand lthumb
    lhand lfingers
    rclavicle rhumerus
    rhumerus rradius
    rradius rwrist
    rwrist rhand rthumb
    rhand rfingers
  end

#!OML:ASF H:\Not Pregnant\Project 1\Capture day 1\Session 1\non-pregnant.ASF
:FULLY-SPECIFIED
:DEGREES
226
root 5.13458 18.9141 17.5053 -169.311 3.19485 -179.109
lowerback 0.45148 -0.986249 0.7038
upperback -7.5742 -0.794495 -0.496261
thorax -8.19903 -0.232905 -0.887659
lowerneck 14.4625 -11.7881 -31.8708
upperneck 4.20284 -20.9185 34.8664
head 6.6496 -11.1916 16.8447
rclavicle 9.19379e-015 3.57812e-015
rhumerus -46.797 -20.2767 -70.5585
rradius 21.9093
rwrist 35.8288
rhand -5.00692 -1.48668
rfingers 7.12502
rthumb 20.7868 -30.3933
lclavicle 9.19379e-015 3.57812e-015
lhumerus -36.6969 -4.4789 88.8221
lradius 42.4809
lwrist 35.692
lhand -14.6508 -15.15
lfingers 7.12502
lthumb 11.5015 14.5145
rfemur -52.9107 -3.09633 31.5072
rtibia 62.4402
rfoot -18.4175 0.418915
rtoes -9.63543
lfemur -7.85038 -4.15637 -21.1484
ltibia 19.7553
lfoot 6.63083 -27.6077
ltoes 2.65516
227
root 5.13577 18.9457 17.4175 -169.15 3.40423 -178.904
lowerback 0.182053 -0.887875 1.08091
upperback -7.65763 -0.624701 -0.458415
thorax -8.13504 -0.165857 -1.07428
lowerneck 14.5546 -11.7587 -31.9221
upperneck 4.04199 -20.8866 34.8837
head 6.58132 -11.1907 16.8686
rclavicle 2.60905e-015 5.56597e-015
rhumerus -46.9042 -20.0637 -70.8069
rradius 22.0175
rwrist 35.5654
rhand -4.709 -1.31875
rfingers 7.12502
rthumb 21.073 -30.1937
lclavicle 2.60905e-015 5.56597e-015
lhumerus -37.2267 -3.99299 88.7974
lradius 42.1174
lwrist 35.382
lhand -14.4016 -15.1017
lfingers 7.12502
lthumb 11.7418 14.5492
rfemur -52.3543 -2.87798 31.6663
rtibia 61.9371
rfoot -18.6941 0.385952
rtoes -9.38332
lfemur -7.8113 -4.12315 -20.9815
ltibia 19.8743
lfoot 7.54492 -27.2499
ltoes 2.03139
228
root 5.13639 18.9789 17.3301 -169.014 3.66626 -178.725
lowerback -0.0634599 -0.783767 1.43124
upperback -7.73533 -0.451692 -0.426344
thorax -8.07698 -0.0960169 -1.25101
lowerneck 14.6289 -11.7229 -31.9735
upperneck 3.91144 -20.8449 34.8921
head 6.52013 -11.1827 16.8908
rclavicle 1.24986e-014 1.21259e-014
rhumerus -46.9607 -19.8206 -71.0988
rradius 22.1364
rwrist 35.2563
rhand -4.40358 -1.23043
rfingers 7.12502
rthumb 21.3664 -30.0724
lclavicle 1.24986e-014 1.21259e-014
lhumerus -37.7864 -3.43667 88.7226
lradius 41.7083
lwrist 35.09
lhand -14.1928 -15.0522
lfingers 7.12502
lthumb 11.9432 14.5871
rfemur -51.7727 -2.64948 31.7916
rtibia 61.432
rfoot -18.9356 0.40092
rtoes -9.18253
lfemur -7.72833 -4.01264 -20.857
ltibia 19.9522
lfoot 8.59264 -26.8464
ltoes 1.74807
229
root 5.13677 19.0137 17.2431 -168.9 3.96576 -178.578
lowerback -0.28957 -0.67835 1.74681
upperback -7.8071 -0.281557 -0.403099
thorax -8.02214 -0.02595 -1.41628
lowerneck 14.6911 -11.6846 -32.0273
upperneck 3.79944 -20.8002 34.9014
head 6.46607 -11.1715 16.915
rclavicle 7.87684e-015 5.76476e-015
rhumerus -46.9687 -19.5601 -71.427
rradius 22.265
rwrist 34.9124
rhand -4.09395 -1.21372
rfingers 7.12502
rthumb 21.6637 -30.0217
lclavicle 7.87684e-015 5.76476e-015
lhumerus -38.3588 -2.82253 88.5978
lradius 41.2351
lwrist 34.8266
lhand -14.0329 -15.0058
lfingers 7.12502
lthumb 12.0974 14.6245
rfemur -51.1644 -2.41064 31.8706
rtibia 60.917
rfoot -19.1496 0.453203
rtoes -9.05494
lfemur -7.60895 -3.82436 -20.7752
ltibia 19.9845
lfoot 9.8096 -26.4102
ltoes 1.91526
230
root 5.13705 19.0503 17.1564 -168.809 4.29374 -178.467
lowerback -0.501783 -0.571727 2.02562
upperback -7.87107 -0.114773 -0.393684
thorax -7.96536 0.0440059 -1.57428
lowerneck 14.7436 -11.6484 -32.0796
upperneck 3.70235 -20.7581 34.9147
head 6.41989 -11.1603 16.9406
rclavicle -2.33572e-014 0
rhumerus -46.9366 -19.3119 -71.7716
rradius 22.3949
rwrist 34.5729
rhand -3.81134 -1.23033
rfingers 7.12502
rthumb 21.9351 -30.0068
lclavicle -2.33572e-014 0
lhumerus -38.9299 -2.16871 88.4243
lradius 40.6829
lwrist 34.5963
lhand -13.9434 -14.9696
lfingers 7.12502
lthumb 12.1837 14.6556
rfemur -50.5236 -2.16871 31.8987
rtibia 60.3845
rfoot -19.3455 0.534476
rtoes -9.00677
lfemur -7.45249 -3.55487 -20.7363
ltibia 19.9651
lfoot 11.2691 -25.899
ltoes 2.74068
231
root 5.13726 19.0889 17.07 -168.736 4.64332 -178.393
lowerback -0.707913 -0.465376 2.27135
upperback -7.92651 0.0468585 -0.399584
thorax -7.90156 0.112741 -1.72856
lowerneck 14.7915 -11.6153 -32.1247
upperneck 3.61583 -20.7194 34.9318
head 6.37886 -11.1495 16.9663
rclavicle 4.22417e-015 -2.98177e-015
rhumerus -46.8712 -19.0661 -72.1377
rradius 22.5365
rwrist 34.2219
rhand -3.55647 -1.25777
rfingers 7.12502
rthumb 22.1798 -30.0053
lclavicle 4.22417e-015 -2.98177e-015
lhumerus -39.494 -1.48143 88.2002
lradius 40.0466
lwrist 34.3954
lhand -13.9451 -14.9261
lfingers 7.12502
lthumb 12.1821 14.6992
rfemur -49.8533 -1.92987 31.8813
rtibia 59.8285
rfoot -19.5243 0.638735
rtoes -9.00567
lfemur -7.26775 -3.21965 -20.7348
ltibia 19.8944
lfoot 12.9655 -25.2789
ltoes 4.10439
232
root 5.13772 19.1294 16.984 -168.673 5.01209 -178.351
lowerback -0.913796 -0.360634 2.48068
upperback -7.97791 0.202569 -0.416976
thorax -7.83235 0.18055 -1.87327
lowerneck 14.839 -11.582 -32.178
upperneck 3.53977 -20.6838 34.9621
head 6.34571 -11.1402 17.0007
rclavicle 1.51573e-015 7.95139e-016
rhumerus -46.7805 -18.8187 -72.5181
rradius 22.6897
rwrist 33.8755
rhand -3.34878 -1.27188
rfingers 7.12502
rthumb 22.3792 -29.9956
lclavicle 1.51573e-015 7.95139e-016
lhumerus -40.0384 -0.765703 87.9273
lradius 39.309
lwrist 34.2185
lhand -14.0307 -14.8698
lfingers 7.12502
lthumb 12.0995 14.7604
rfemur -49.163 -1.69249 31.8264
rtibia 59.2456
rfoot -19.683 0.759562
rtoes -9.01308
lfemur -7.07219 -2.82327 -20.762
ltibia 19.7807
lfoot 14.8781 -24.5111
ltoes 5.9185
233
root 5.13869 19.1719 16.8994 -168.61 5.3779 -178.337
lowerback -1.12018 -0.263687 2.65539
upperback -8.02716 0.344914 -0.442191
thorax -7.76 0.243892 -2.00517
lowerneck 14.8806 -11.5532 -32.2271
upperneck 3.47268 -20.654 34.9937
head 6.31825 -11.1327 17.0335
rclavicle 3.47873e-015 -7.55382e-015
rhumerus -46.6573 -18.5634 -72.9183
rradius 22.8623
rwrist 33.5094
rhand -3.17058 -1.28259
rfingers 7.12502
rthumb 22.5502 -29.9857
lclavicle 3.47873e-015 -7.55382e-015
lhumerus -40.5543 -0.0232769 87.6059
lradius 38.4785
lwrist 34.0418
lhand -14.1996 -14.736
lfingers 7.12502
lthumb 11.9366 14.9037
rfemur -48.4699 -1.47839 31.7486
rtibia 58.6346
rfoot -19.8212 0.896558
rtoes -8.98898
lfemur -6.89333 -2.3809 -20.8031
ltibia 19.6461
lfoot 16.9577 -23.579
ltoes 8.09377
234
root 5.14006 19.2157 16.816 -168.544 5.74878 -178.336
lowerback -1.32757 -0.169393 2.81046
upperback -8.07696 0.482149 -0.472133
thorax -7.6871 0.306048 -2.12999
lowerneck 14.9333 -11.5254 -32.2732
upperneck 3.40811 -20.6278 35.028
head 6.29111 -11.1277 17.0678
rclavicle 9.91439e-015 5.76476e-015
rhumerus -46.5137 -18.277 -73.3465
rradius 23.0662
rwrist 33.1193
rhand -3.0365 -1.26078
rfingers 7.12502
rthumb 22.6789 -29.9482
lclavicle 9.91439e-015 5.76476e-015
lhumerus -41.042 0.743227 87.2338
lradius 37.5582
lwrist 33.8478
lhand -14.4171 -14.5305
lfingers 7.12502
lthumb 11.7269 15.1212
rfemur -47.7758 -1.27505 31.6627
rtibia 57.9971
rfoot -19.9394 1.05168
rtoes -8.91164
lfemur -6.74693 -1.90152 -20.8423
ltibia 19.5221
lfoot 19.1022 -22.4708
ltoes 10.44
235
root 5.14217 19.2607 16.7346 -168.466 6.10744 -178.34
lowerback -1.53657 -0.085347 2.94593
upperback -8.13301 0.605613 -0.500718
thorax -7.62021 0.363201 -2.24107
lowerneck 14.986 -11.4997 -32.3127
upperneck 3.35718 -20.6049 35.0553
head 6.26726 -11.1236 17.0973
rclavicle -8.94531e-015 -6.75868e-015
rhumerus -46.3461 -17.9619 -73.7986
rradius 23.3016
rwrist 32.6973
rhand -2.90889 -1.25656
rfingers 7.12502
rthumb 22.8014 -29.9289
lclavicle -8.94531e-015 -6.75868e-015
lhumerus -41.5106 1.53386 86.81
lradius 36.5625
lwrist 33.6266
lhand -14.6411 -14.2723
lfingers 7.12502
lthumb 11.5109 15.3916
rfemur -47.0972 -1.08606 31.5788
rtibia 57.3363
rfoot -20.0346 1.21859
rtoes -8.79108
lfemur -6.66681 -1.39804 -20.8642
ltibia 19.4469
lfoot 21.2265 -21.2032
ltoes 12.8005
